<svg width="145" height="25" viewBox="0 0 145 25" fill="none" xmlns="http://www.w3.org/2000/svg">
<path d="M18.7994 5.88556H12.5586L10.5174 3.84443C9.97531 3.3023 9.2433 3 8.47632 3H2.88507V5.88556H8.47882L10.5199 7.92669C11.0621 8.46883 11.7941 8.77113 12.5611 8.77113H18.1548V18.3672H21.0404V8.12656C21.0404 6.88989 20.0386 5.88556 18.7994 5.88556V5.88556Z" fill="white"/>
<path d="M2.88556 5.886H0V19.0122C0 20.2489 1.00183 21.2532 2.241 21.2532H18.1553V18.3676H2.88556V5.886V5.886Z" fill="white"/>
<mask id="mask0_8852_108398" style="mask-type:luminance" maskUnits="userSpaceOnUse" x="38" y="4" width="107" height="18">
<path d="M145 4H38V21.7052H145V4Z" fill="white"/>
</mask>
<g mask="url(#mask0_8852_108398)">
<path d="M52.8231 17.6203H54.6277V8.8652H52.8231V17.6203ZM53.7361 5.5089C53.1453 5.5089 52.6727 5.96051 52.6727 6.50962C52.6727 7.07414 53.1453 7.52574 53.7361 7.52574C54.3054 7.52574 54.7834 7.07414 54.7834 6.50962C54.778 5.96051 54.3054 5.5089 53.7361 5.5089ZM60.2883 12.4781C58.806 12.2215 58.4248 11.8263 58.4248 11.3542C58.4248 11.0257 58.6504 10.4304 59.8695 10.4304C60.5892 10.4304 61.3303 10.8102 61.5396 11.4106L63.2475 10.8461C63.0973 10.3021 62.2218 8.74203 59.864 8.74203C57.3345 8.74203 56.3677 10.4869 56.6148 11.8674C56.8404 13.1914 57.9253 13.72 59.6923 14.0639C61.1154 14.3358 61.6687 14.5924 61.7277 15.0081C61.8028 15.5008 61.3303 16.0602 60.111 16.0602C58.8758 16.0602 58.269 15.5162 58.0595 14.9722L56.3516 15.547C56.7867 16.7479 58.1026 17.7794 60.1917 17.7794C62.2808 17.7794 63.7094 16.5272 63.5538 14.8182C63.4409 13.4429 62.3776 12.8425 60.2883 12.4781ZM69.8858 8.74203C68.7096 8.74203 67.759 9.14232 67.093 9.8146V8.8652H65.267V21.577H67.093V16.676C67.759 17.3483 68.7096 17.7486 69.8858 17.7486C72.5442 17.7486 74.1447 15.7163 74.1447 13.2427C74.1447 10.7691 72.5497 8.74203 69.8858 8.74203ZM69.6817 16.0191C68.0113 16.0191 67.1736 14.7464 67.1736 13.2427C67.1736 11.7391 68.0275 10.4664 69.6817 10.4664C71.3144 10.4664 72.1736 11.7391 72.1736 13.2427C72.1736 14.7464 71.3306 16.0191 69.6817 16.0191Z" fill="white"/>
<path d="M85.6272 8.74202C84.4134 8.74202 83.4628 9.27061 82.8345 10.179C82.2437 9.23468 81.2769 8.74202 80.0041 8.74202C79.1126 8.74202 78.4091 9.04994 77.8559 9.55799V8.86518H76.0513V17.6203H77.8504V12.7347C77.8504 11.1027 78.5916 10.4664 79.7141 10.4664C80.7775 10.4664 81.6315 11.1386 81.6315 12.8476V17.6254H83.436V12.7398C83.436 11.1078 84.2362 10.4715 85.3534 10.4715C86.4006 10.4715 87.1955 11.1438 87.1955 12.8527V17.6305H89.0216V12.6936C89.0269 10.1584 87.7916 8.74202 85.6272 8.74202ZM94.8701 8.72149C92.4964 8.72149 91.39 10.2098 91.1644 11.3183L92.7972 11.6467C93.0657 10.7229 93.8229 10.3021 94.736 10.2662C95.5147 10.2098 96.5405 10.5947 96.4061 11.4466C96.3096 12.0624 95.3052 12.1342 94.1237 12.4268C92.2439 12.8989 90.9872 13.407 90.7777 15.1313C90.6058 16.5682 91.7659 17.9282 93.9142 17.7486C95.3375 17.6203 96.1162 16.9685 96.4598 16.5888V17.6254H98.2484V11.9341C98.2537 9.60932 96.7875 8.72149 94.8701 8.72149ZM96.4653 13.8791C96.4653 15.2596 95.0958 16.1115 94.1666 16.1833C93.1569 16.2552 92.8186 15.8908 92.7596 15.4957C92.7004 15.1518 92.7972 14.4077 94.4297 14.0074C95.6436 13.7149 96.4653 13.4993 96.4653 13.4993V13.8791ZM104.656 8.74202C103.705 8.74202 102.905 9.10639 102.298 9.70682V8.86518H100.493V17.6203H102.298V12.7347C102.298 11.1027 103.189 10.4664 104.312 10.4664C105.375 10.4664 106.229 11.1386 106.229 12.8476V17.6254H108.034V12.6885C108.034 10.1584 106.798 8.74202 104.656 8.74202ZM113.861 8.72149C111.487 8.72149 110.381 10.2098 110.155 11.3183L111.788 11.6467C112.056 10.7229 112.814 10.3021 113.727 10.2662C114.505 10.2098 115.531 10.5947 115.397 11.4466C115.3 12.0624 114.296 12.1342 113.114 12.4268C111.235 12.8989 109.978 13.407 109.768 15.1313C109.597 16.5682 110.757 17.9282 112.905 17.7486C114.328 17.6203 115.107 16.9685 115.451 16.5888V17.6254H117.239V11.9341C117.239 9.60932 115.778 8.72149 113.861 8.72149ZM115.456 13.8791C115.456 15.2596 114.087 16.1115 113.157 16.1833C112.148 16.2552 111.809 15.8908 111.75 15.4957C111.691 15.1518 111.788 14.4077 113.421 14.0074C114.634 13.7149 115.456 13.4993 115.456 13.4993V13.8791ZM126.068 9.80946C125.402 9.13718 124.452 8.73689 123.276 8.73689C120.617 8.73689 119.017 10.7691 119.017 13.2427C119.017 15.7163 120.612 17.7486 123.276 17.7486C124.452 17.7486 125.402 17.3483 126.068 16.676V16.9326C126.068 18.9649 124.93 19.981 123.426 19.981C122.459 19.981 121.563 19.5088 121.106 18.8006L119.586 19.7449C120.365 20.9253 121.885 21.7053 123.48 21.7053C125.816 21.7053 127.889 20.4172 127.889 16.7684V8.86518H126.063V9.80946H126.068ZM123.501 16.0191C121.847 16.0191 120.993 14.7464 120.993 13.2427C120.993 11.7391 121.831 10.4664 123.501 10.4664C125.155 10.4664 125.993 11.7391 125.993 13.2427C125.993 14.7464 125.134 16.0191 123.501 16.0191ZM134.167 8.74202C131.509 8.74202 129.758 10.7743 129.758 13.2479C129.758 15.7215 131.563 17.7537 134.227 17.7537C135.918 17.7537 137.229 16.9377 137.97 15.7009L136.316 14.9363C135.897 15.588 135.193 16.0242 134.227 16.0242C132.895 16.0242 132.062 15.2083 131.794 14.1152H138.179C138.238 13.8226 138.255 13.5352 138.255 13.2427C138.255 10.7743 136.831 8.74202 134.167 8.74202ZM131.756 12.4781C132.003 11.3337 132.803 10.4612 134.167 10.4612C135.532 10.4612 136.203 11.3337 136.391 12.4781H131.756ZM144.275 8.72149C143.324 8.72149 142.524 9.08585 141.917 9.6863V8.86518H140.113V17.6203H141.917V12.7347C141.917 11.1027 142.83 10.4664 143.931 10.4664C144.2 10.4664 144.425 10.5023 144.651 10.5947L144.995 8.79847C144.769 8.75742 144.522 8.72149 144.275 8.72149Z" fill="white"/>
<path d="M44.246 8.87024H40.8571C40.7014 8.87024 40.5671 8.96775 40.5188 9.11145L38.016 17.1891C37.9516 17.4047 38.1181 17.6202 38.3544 17.6202H41.7433C41.899 17.6202 42.0333 17.5227 42.0816 17.379L44.5898 9.2962C44.6488 9.08578 44.4823 8.87024 44.246 8.87024ZM49.5469 8.87024H46.158C46.0022 8.87024 45.868 8.96775 45.8196 9.11145L43.3169 17.1891C43.2524 17.4047 43.4189 17.6202 43.6553 17.6202H47.0441C47.1999 17.6202 47.3342 17.5227 47.3825 17.379L49.8906 9.2962C49.9497 9.08578 49.7832 8.87024 49.5469 8.87024Z" fill="#749EFF"/>
</g>
<path d="M34 4H35L29 22H28L34 4Z" fill="#727272"/>
</svg>
